<svg version="1" xmlns="http://www.w3.org/2000/svg" width="1365.333" height="1365.333" viewBox="0 0 1024.000000 1024.000000"><path d="M344.5 333.8c-1.7 1.1-4 3.2-5 4.8-2 2.9-2 5.6-1.7 175.4.3 164.3.4 172.7 2.1 176 3.4 6.6 6.3 7.5 26.6 7.8 20.9.4 24.2-.3 28.9-6.1l3.1-3.9V344.5l-2.3-4.3c-4.1-7.6-5.6-8-28.6-8.1-18-.1-20.4.1-23.1 1.7zm14.3 28.7c5.1 10.2 9.4 18.5 9.6 18.5.2 0 5-8.1 10.7-18 5.7-9.9 10.6-18 10.9-18 .3 0 1.7 4.2 3.3 9.3l2.8 9.4-9 18.4c-4.9 10.1-9.2 20-9.6 22-.5 2.5.4 8 2.9 18.5 7.8 33 10.6 58.1 10.6 94.3-.1 35-2.9 59.2-10.4 88.8-1.4 5.6-2.6 11.3-2.6 12.7 0 1.4 2.1 7.2 4.6 12.8 2.6 5.7 6.6 14.9 9 20.5L396 662l-3.4 10.2c-1.9 5.7-3.9 10.3-4.5 10.3-.5 0-5.1-8.3-10.1-18.5-8.2-16.4-9.3-18.3-10.5-16.7-.7 1-5.5 9.2-10.7 18.2-5.1 9.1-9.5 16.5-9.8 16.5-.3 0-1.8-4.3-3.4-9.6l-3-9.5 9.2-18.7c5.1-10.3 9.5-20.1 9.8-21.7.3-1.8-1-9.9-3.5-20.5-8.7-38.3-11.8-71.6-10.1-109.5.8-20.2 4.4-45.9 8.5-62.5 4.1-16.5 4.5-20.1 3.1-26.1-.8-3-4.8-12.8-9-21.8s-7.6-16.8-7.6-17.3c0-1.6 7.3-20.8 7.9-20.8.3 0 4.8 8.3 9.9 18.5z"/><path d="M366.2 447.2c-6.2 27.8-6.7 84-1.2 117.7 2.5 14.9 4 21.2 5 20.6.7-.5 1-2 3.6-23 2.4-19.6 2.9-56.1 1-76.5-1.6-18.3-5.5-44-6.6-44-.4 0-1.2 2.4-1.8 5.2zM36.5 334.9c-5 1.2-7.2 2.9-9 6.8-1.7 3.6-1.8 11.7-1.1 176.7.6 163.5.7 173.1 2.4 176 1.2 2 3.2 3.6 5.7 4.4 5 1.6 42.1 3 41.2 1.5-.5-.7 0-.9 1.1-.6 2.4.6 8.1-4.2 9.8-8.2 1-2.4 1.3-15.7 1.4-60.1 0-35.9.4-57 1-57.2.6-.2 1-1.1 1-2.1 0-3.1 6.8-14.6 12.3-20.7 6.5-7.1 11.6-10.8 18.5-13.4l5.1-2 5.8 7.3c3.2 3.9 7.2 9 8.8 11.2 1.6 2.2 3.5 4.7 4.2 5.5.7.8 4.7 6.4 9 12.4 8.5 11.9 8.1 11.3 16.7 23.6 3.3 4.7 6.2 8.7 6.6 9 .3.3 4.4 5.9 9 12.5s8.7 12.1 9.2 12.3c.4.2.8 1 .8 1.7s.4 1.5.8 1.7c.4.1 8.6 11.3 18.2 24.8s17.7 24.7 18 25c.3.3 2.5 3.3 4.9 6.7 4.4 6.3 7.5 9 11.4 10 1.2.3 12 .7 24.1 1 15.9.4 21.7.2 21.2-.6-.4-.6-.2-.9.7-.6 1.7.7 7.4-3.2 10.1-6.8 2.4-3.2 3-11.7.8-12.5-.6-.2-1-.7-.8-1 .2-.4-1.9-4-4.7-7.9-8.6-12-58.6-81.5-68.4-95.1-5-7-11.5-16.1-14.4-20.2-2.9-4.1-8.2-11.6-11.9-16.5-3.6-5-9.7-13.5-13.5-19-3.8-5.5-7.1-10.2-7.4-10.5-.5-.4-2.1-2.8-9.7-14.5-1-1.6-1.4-2.6-.8-2.2 1.1.6 1.4-.2 2.9-7.1.7-3.1 5.9-10.2 11.7-16.2 3.5-3.6 16.7-16.1 29.3-27.9 12.7-11.8 23.1-21.8 23.3-22.2.2-.4 11.3-10.9 24.7-23.4 19.3-17.9 24.7-23.5 25.4-26.2.5-1.9 2.5-5.3 4.4-7.6 4.9-6 5.5-7.6 5.3-13.2-.2-6.7-2.3-10.4-7.1-12.9-3.7-2-5.8-2.1-30.5-2.3l-26.5-.2-8.2 7.7c-4.5 4.2-16.9 15.8-27.5 25.6-10.6 9.9-23.3 21.9-28.3 26.6-4.9 4.8-12.1 11.6-16 15.1-7.4 6.7-11.8 10.8-33.5 31.4-14.6 13.9-40.6 36.3-35.2 30.5 1.4-1.7 1.6-4.4.2-3.5-.6.4-1-2.1-.9-6.7 0-4-.2-31.2-.5-60.3-.5-57-.7-59-5.8-62.8-1.3-1-4.2-2.2-6.4-2.7-4.6-1.1-34.5-1.1-38.9-.1zM438.8 335c-4.3 1.3-8.4 4.7-9.8 8-1.7 4.1-.8 342.4 1 348.2 1.7 5.9 5.5 7.8 16.8 8.9 11.2 1 152.6 1.2 159.6.3 2.6-.4 4.3-1 3.8-1.3-.6-.3.9-.6 3.1-.6 6.4-.1 11.9-1.4 11.1-2.7-.4-.6-.3-.8.3-.5 1.6 1 11.4-2.7 18.3-6.7 3.4-2 5.8-3.1 5.4-2.5-2.7 4.4 18.9-12.2 23.6-18.2 5.7-7.2 12.2-18.4 12.4-21.3 0-1.3.4-2.2.9-1.9.6.4 1.1-1.2.8-3-.1-.4.6-2.1 1.4-3.7.9-1.7 1.3-3 1.1-3-.3 0 .4-2.6 1.5-5.8 2.9-8.3 3.4-16 3.4-51.2-.1-27.5-.3-32.4-2-38.5-1-3.9-1.8-7.6-1.8-8.3 0-.6-.4-1.2-.8-1.2-.5 0-.6-.6-.3-1.4.3-.7-.2-2-1-2.9-.8-.8-1.3-1.7-1-2 .9-.8-5.2-11.8-9.3-16.9-5.6-6.9-13.5-12.9-25.3-19.3-5.8-3.1-9.8-5.4-8.8-5.2 1.2.4 1.8-.3 2.3-3.1.8-4.6 5.5-13.6 9.5-18.2 1.7-1.9 2.8-4 2.6-4.7-.3-.6.1-1.7.9-2.3 2.2-1.8 6.7-13.9 8.1-22 1.7-9.1 1.9-31.3.3-29-.8 1.1-.9.7-.4-1.6.7-3.7-.3-8.6-1.6-7.8-.5.3-.6-.2-.3-1s-.4-3.5-1.5-6-1.7-4.6-1.5-4.6c.7 0-6.3-12.6-8.2-14.9-.7-.9-2.6-3.2-4.1-5.1-3-3.9-9.8-10.1-15.3-14.1-4.6-3.4-18.1-9.7-22.2-10.4-1.8-.3-4.9-1.1-6.8-1.7-4.2-1.4-161.9-2.2-166.2-.8zm127.5 60.7c-14.5.2-38.1.2-52.5 0-14.5-.1-2.7-.2 26.2-.2s40.7.1 26.3.2zm31.5 3.3c3.5 2.1 7.2 7.4 7.2 10.2 0 1 .5 1.8 1 1.8.6 0 1 .9 1 2s-.4 2-.9 2-1.1 1.7-1.5 3.8c-.4 2.7-2 5.3-5.3 8.9-9.7 10.3-59 40.7-92.3 56.9-6.3 3.1-12.7 6.3-14.2 7.1l-2.8 1.4v-39.2c0-21.6.3-38.9.7-38.6.3.4 1.9-1.5 3.4-4.2 3.2-5.6 10.6-12.3 14.7-13.2 1.5-.4 21.4-.7 44.2-.8 39.8-.1 41.6 0 44.8 1.9zm68.9 25.2c-.3.8-.6.5-.6-.6-.1-1.1.2-1.7.5-1.3.3.3.4 1.2.1 1.9zm-75.4 107.5c-6.7.2-17.9.2-25 0-7-.1-1.5-.3 12.2-.3 13.8 0 19.5.2 12.8.3zm18.3 1.2c-.3.5.7 1.1 2.2 1.4 8.4 1.7 18.7 13.7 19.8 23.2.3 2.7.8 5.3 1 5.7.6 1 .6 23.2-.1 36.2-.7 12.4-1.8 15.8-7.7 23-6.1 7.4-10.1 10.5-17.1 13.5l-6.2 2.6-57 .1c-31.3.1-54.3-.2-51-.6l6-.7-4.7-.1-4.8-.2v-30.1c0-16.5.4-29.8.8-29.5.5.3 1.7-1.8 2.7-4.7 2.3-6.2 13.3-17.8 21-21.9 2.8-1.4 4.9-3.1 4.8-3.7-.2-.6.4-.8 1.4-.4 1.2.5 1.4.3.8-.7-.5-.9-.4-1.1.3-.6 1.1.6 9.2-2.9 9.2-4 0-.3-.5-.2-1.2.2s-.8.3-.4-.4c.4-.6 1.4-.8 2.3-.5 1.2.5 1.4.3.8-.7-.5-.9-.4-1.1.4-.6.6.4 4.2-.8 7.9-2.6l6.7-3.3 31-.5c17.1-.3 31.1-.6 31.3-.8.2-.1.1.2-.2.7zm82.1 14.3c-.3.8-.6.5-.6-.6-.1-1.1.2-1.7.5-1.3.3.3.4 1.2.1 1.9zm1 45c-.1 6.2-.3 1.4-.3-10.7s.2-17.2.3-11.3c.2 5.9.2 15.8 0 22zm-89 107.4c-.3.3-1.2.4-1.9.1-.8-.3-.5-.6.6-.6 1.1-.1 1.7.2 1.3.5zM744.5 334.9c-4.8 1.2-7.4 3-9 6.1-1.3 2.5-1.5 18.7-1.5 131.4 0 84.4.4 131 1.1 136 2.7 19.6 13.7 41.6 28.8 57.8 6.4 6.8 18.6 16.4 25.6 20.1 8.6 4.5 15.8 7.6 16.6 7.1.5-.3.9 0 .9.7s.3 1 .6.6c.3-.3 3.1.3 6.2 1.4 3.2 1.1 6.5 1.8 7.5 1.5 1-.2 1.4 0 1 .6-.4.8.4.9 2.6.5 2.3-.5 3-.3 2.5.5s.7.9 4.1.6c2.9-.4 4.2-.2 3.4.3-.8.5 9.6.9 25.2.9 22.1 0 28.6-.3 38.1-2 12.6-2.2 24.5-6.1 34.3-11.3 3.6-1.9 6.2-2.9 5.8-2.3-1 1.5 4.8-2.3 6.5-4.3.8-.9 1.1-1 .7-.3-.4.7 1.7-.1 4.5-1.9 7-4.3 21.5-18.9 27.2-27.4 5.1-7.5 10.6-19.1 8.6-17.9-.7.5-.4-.5.6-2.1 1.1-1.6 2.1-3.8 2.2-5 .2-1.1 1.2-4.5 2.3-7.5 1-3 2.7-9.8 3.6-15 1.5-8.6 1.6-21.7 1.3-133.5l-.3-124-2.2-4.7c-2-4.3-2.6-4.8-7.8-6.3-7.5-2.2-39.3-1.8-44 .5-6.3 3.2-5.9-4.6-6.5 132-.4 98.7-.8 125.3-1.9 128.4-.7 2.1-1.4 4.7-1.6 5.7-.7 3.3-8.3 15.3-12.5 19.7-6.2 6.4-14.5 11.6-23.5 14.8-7.8 2.8-8.4 2.8-31 3-27.2.1-31.5-.4-41.3-5.1-9.1-4.3-19.4-14.3-23.1-22.2-1.3-2.9-2.7-5.1-3-4.9-.3.2-.8-.6-.9-1.7-.2-1.2-.7-56.2-1.1-122.2l-.6-120-.3 114.2c-.1 77.5-.5 114.3-1.2 114.3s-1-39.7-1-124.3c.1-68.4-.2-125.6-.6-127.1-1.3-5.1-4.9-6-25.4-6.3-10.2-.1-19.8.2-21.5.6z"/></svg>