<?xml version="1.0" standalone="no"?>
<!DOCTYPE svg PUBLIC "-//W3C//DTD SVG 20010904//EN"
 "http://www.w3.org/TR/2001/REC-SVG-20010904/DTD/svg10.dtd">
<svg version="1.0" xmlns="http://www.w3.org/2000/svg"
 width="16.000000pt" height="16.000000pt" viewBox="0 0 16.000000 16.000000"
 preserveAspectRatio="xMidYMid meet">
<metadata>
Created by potrace 1.11, written by Peter Selinger 2001-2013
</metadata>
<g transform="translate(0.000000,16.000000) scale(0.001320,-0.001320)"
fill="#000000" stroke="none">
<path d="M4140 8169 c0 -6 -9 -8 -20 -4 -12 4 -20 2 -20 -5 0 -6 -4 -9 -9 -6
-23 15 -109 -90 -97 -119 3 -8 1 -15 -4 -15 -6 0 -10 -150 -10 -405 0 -223 3
-405 8 -405 4 0 5 -713 3 -1585 -2 -1205 0 -1585 8 -1585 7 0 9 -5 6 -11 -8
-13 14 -71 25 -64 4 3 7 -3 6 -12 -1 -23 63 -65 91 -60 12 2 20 1 18 -3 -5 -7
297 -22 403 -20 64 1 117 25 159 74 62 69 58 -55 58 1951 l0 1840 -22 49 c-17
36 -23 67 -23 120 0 91 -10 147 -23 139 -6 -3 -7 -1 -3 5 21 34 -82 130 -125
117 -14 -5 -19 -4 -15 4 5 8 -52 11 -203 11 -143 0 -211 -3 -211 -11z m105
-354 c60 -118 113 -215 116 -215 6 0 156 248 214 355 15 28 31 54 35 58 6 7
36 -78 74 -208 2 -5 -44 -103 -100 -217 -116 -232 -131 -275 -116 -340 5 -24
26 -111 46 -195 37 -156 75 -385 98 -578 17 -148 17 -781 0 -930 -21 -173 -58
-378 -103 -560 l-41 -167 20 -57 c11 -31 38 -96 60 -146 98 -219 132 -301 132
-314 0 -34 -75 -241 -87 -239 -6 2 -59 99 -117 216 -58 116 -109 212 -113 212
-5 0 -64 -96 -133 -214 l-125 -214 -27 86 c-48 152 -53 126 67 367 68 137 109
231 112 258 3 28 -5 86 -25 167 -101 410 -142 733 -142 1125 0 332 36 655 106
950 53 226 56 247 44 298 -5 25 -53 139 -105 254 -52 114 -95 215 -95 224 0 9
13 47 28 85 15 38 34 88 42 112 7 23 16 42 19 42 3 0 55 -97 116 -215z"/>
<path d="M4342 6859 c-55 -171 -86 -693 -63 -1039 21 -304 81 -676 102 -625
10 26 46 295 59 445 15 173 12 554 -5 736 -17 174 -62 481 -75 503 -5 10 -11
4 -18 -20z"/>
<path d="M460 8143 c0 -5 -16 -8 -36 -9 -22 0 -42 -7 -49 -17 -7 -9 -15 -14
-18 -11 -3 3 -17 -14 -31 -39 l-26 -44 0 -1321 c0 -867 3 -1322 10 -1322 6 0
8 -231 3 -672 -6 -645 -3 -775 18 -763 5 3 6 0 4 -7 -7 -17 50 -73 64 -64 6 4
11 2 11 -5 0 -6 8 -9 20 -6 11 3 18 1 15 -3 -3 -5 70 -11 162 -15 326 -12 313
-13 365 18 31 18 57 44 75 75 l28 47 6 600 c5 502 9 611 22 668 43 182 169
351 310 418 83 39 123 46 146 25 10 -9 21 -13 26 -9 4 5 5 2 1 -5 -9 -16 32
-74 46 -66 7 4 8 2 4 -4 -9 -15 34 -73 48 -65 6 3 8 3 4 -2 -9 -10 10 -47 21
-40 5 2 8 -3 7 -13 0 -9 5 -16 12 -14 6 1 11 -2 10 -7 -4 -13 146 -220 155
-214 4 2 6 0 5 -7 -4 -15 165 -249 176 -242 5 3 7 1 3 -4 -7 -13 48 -86 58
-76 5 4 5 2 2 -4 -7 -11 60 -110 72 -107 4 1 8 -4 8 -10 0 -7 24 -46 53 -87
77 -107 97 -130 105 -122 5 4 5 2 1 -5 -7 -13 91 -149 106 -145 5 1 7 -2 3 -8
-7 -11 35 -71 45 -65 4 2 7 -1 7 -8 0 -18 34 -68 42 -62 4 2 8 -1 8 -8 0 -22
35 -67 47 -60 6 3 8 3 4 -2 -9 -10 10 -47 21 -40 5 2 8 -3 7 -13 0 -9 5 -16
11 -15 7 2 12 -1 10 -6 -2 -11 123 -190 172 -244 19 -21 44 -43 55 -50 12 -6
95 -15 186 -19 91 -5 208 -11 261 -14 151 -9 205 14 253 106 33 63 36 173 3
153 -6 -3 -7 -1 -3 5 9 15 -104 173 -117 165 -6 -3 -7 -1 -3 5 8 13 -42 84
-54 77 -4 -3 -7 3 -6 13 0 9 -5 16 -12 14 -8 -1 -11 2 -7 7 7 13 -143 217
-157 213 -5 -1 -7 2 -3 8 8 13 -36 71 -48 63 -6 -3 -7 -1 -3 5 8 14 -42 84
-55 76 -5 -3 -7 1 -4 8 3 7 -19 45 -48 83 -29 39 -111 151 -182 250 -150 209
-175 241 -187 237 -5 -1 -7 2 -3 7 8 14 -94 153 -107 145 -7 -4 -8 -2 -4 4 9
15 -53 104 -67 95 -6 -3 -7 -1 -3 5 9 14 -173 264 -187 255 -6 -3 -7 -1 -3 5
4 6 -43 80 -104 164 l-111 153 4 66 c5 73 35 150 89 225 18 26 285 283 593
572 758 712 722 673 712 769 -3 30 -1 55 4 59 6 3 8 13 5 21 -3 8 -2 11 3 8
12 -7 24 31 15 46 -4 8 -3 9 4 5 20 -12 14 74 -8 118 -23 48 -78 88 -120 90
-17 1 -30 4 -30 9 0 4 -123 7 -274 7 -211 0 -275 -3 -279 -12 -3 -10 -8 -10
-21 2 -16 13 -22 10 -56 -27 -22 -22 -41 -39 -43 -37 -2 2 -31 -25 -65 -60
-34 -35 -62 -62 -62 -59 0 4 -30 -23 -67 -59 -38 -36 -130 -123 -205 -193 -76
-70 -138 -131 -138 -136 0 -6 -4 -8 -9 -5 -4 3 -36 -23 -69 -58 -34 -35 -63
-62 -65 -60 -2 2 -31 -25 -65 -60 -33 -35 -62 -62 -65 -60 -2 2 -31 -25 -65
-60 -34 -35 -63 -62 -65 -60 -2 2 -31 -25 -65 -60 -34 -35 -62 -62 -62 -59 0
3 -7 0 -15 -7 -8 -7 -12 -17 -8 -23 3 -5 1 -7 -4 -4 -6 4 -31 -16 -57 -43 -25
-27 -46 -47 -46 -43 0 3 -7 0 -15 -7 -8 -7 -12 -17 -8 -24 3 -6 3 -8 -2 -4 -9
8 -131 -101 -128 -114 2 -4 -1 -7 -6 -5 -14 4 -132 -104 -125 -115 4 -6 2 -8
-3 -5 -6 4 -33 -13 -61 -38 -27 -25 -52 -45 -55 -45 -6 0 -24 47 -38 100 -8
29 -14 217 -18 535 -6 485 -6 490 -28 528 -20 33 -23 52 -23 138 0 57 -4 98
-9 95 -5 -4 -7 2 -4 13 12 47 -78 131 -128 118 -11 -3 -19 -1 -19 4 0 5 -89 9
-205 9 -113 0 -205 -3 -205 -7z"/>
<path d="M5226 8141 c-3 -5 -15 -7 -26 -4 -12 3 -20 0 -20 -6 0 -7 -4 -10 -9
-6 -5 3 -16 -1 -24 -9 -8 -8 -17 -13 -19 -10 -3 2 -13 -5 -23 -16 -10 -11 -15
-20 -11 -20 4 0 0 -7 -8 -16 -9 -8 -14 -20 -11 -25 4 -5 2 -9 -4 -9 -7 0 -10
-600 -8 -1827 0 -1006 4 -1729 8 -1608 3 121 4 36 2 -191 -4 -361 -3 -413 11
-426 8 -9 12 -18 9 -22 -10 -9 38 -56 50 -49 6 3 7 1 3 -5 -8 -14 30 -36 50
-28 8 3 14 1 14 -4 0 -15 251 -20 1130 -26 575 -4 859 -2 937 6 268 27 478
119 655 288 162 155 265 353 304 587 21 128 29 479 15 660 -12 161 -19 195
-83 442 -6 25 -15 40 -21 36 -6 -3 -7 -1 -3 5 9 15 -4 63 -15 56 -5 -3 -6 2
-3 10 12 31 -116 233 -138 220 -6 -4 -8 -2 -5 3 8 13 -27 46 -38 36 -4 -5 -5
-3 -2 4 9 14 -51 65 -66 56 -7 -3 -9 -3 -5 2 11 11 -60 58 -74 49 -7 -5 -8 -3
-3 6 6 10 4 12 -11 6 -10 -4 -15 -4 -11 0 4 4 -10 17 -30 29 -35 20 -38 24
-36 64 2 50 53 163 106 237 52 72 95 169 113 255 22 104 15 313 -15 434 -36
143 -73 255 -82 249 -5 -3 -6 2 -3 10 7 18 -34 99 -46 91 -6 -4 -7 1 -3 11 5
13 3 15 -7 9 -9 -5 -11 -4 -6 3 10 16 -12 54 -26 46 -6 -4 -8 -3 -5 3 9 15
-51 95 -65 87 -6 -4 -8 -3 -5 3 7 11 -26 47 -35 38 -3 -3 -11 3 -19 12 -13 17
-13 17 6 3 20 -14 20 -14 1 7 -10 13 -23 20 -28 17 -4 -3 -7 -1 -6 4 4 12 -72
73 -82 67 -4 -3 -10 1 -13 9 -7 17 -146 88 -158 80 -5 -3 -9 0 -9 6 0 7 -7 10
-15 6 -8 -3 -15 -1 -15 5 0 6 -7 8 -16 5 -10 -4 -13 -2 -8 6 5 7 0 9 -14 6
-12 -4 -22 -2 -22 4 0 6 -11 8 -25 6 -14 -3 -22 -1 -18 5 3 6 -6 8 -26 5 -17
-2 -31 0 -31 5 0 6 -20 7 -50 4 -29 -4 -50 -2 -50 3 0 13 -1797 13 -1804 1z
m1482 -718 c-169 -2 -448 -2 -620 0 -172 1 -34 2 307 2 341 0 482 -1 313 -2z
m386 -48 c15 -6 17 -5 11 5 -5 9 -4 11 4 6 6 -4 9 -12 5 -17 -7 -11 15 -41 25
-35 4 3 8 -3 9 -12 12 -115 16 -182 9 -182 -5 0 -7 -5 -5 -12 2 -6 -11 -27
-28 -47 -18 -19 -30 -39 -28 -43 3 -5 2 -7 -3 -6 -4 1 -44 -25 -88 -57 -44
-33 -122 -87 -173 -119 -50 -32 -92 -62 -92 -67 0 -6 -4 -8 -8 -5 -7 4 -77
-36 -92 -53 -3 -3 -11 -7 -19 -9 -8 -2 -26 -11 -40 -21 -14 -10 -72 -44 -128
-75 -57 -31 -103 -62 -103 -67 0 -6 -4 -7 -10 -4 -5 3 -10 1 -10 -5 0 -6 -4
-8 -10 -5 -5 3 -10 1 -10 -5 0 -6 -4 -9 -10 -5 -5 3 -18 -3 -29 -14 -11 -11
-22 -17 -25 -13 -3 3 -6 0 -6 -6 0 -7 -3 -11 -8 -9 -15 4 -91 -36 -85 -46 3
-6 1 -7 -5 -4 -14 9 -43 -3 -36 -14 3 -5 -3 -6 -12 -2 -13 5 -15 3 -9 -7 5 -8
4 -11 -3 -6 -14 8 -134 -58 -124 -69 4 -4 2 -5 -5 -1 -7 4 -25 0 -41 -8 -29
-15 -29 -15 -40 22 -27 91 -34 192 -29 432 6 322 25 390 132 489 56 52 115 79
209 97 82 15 877 15 910 -1z m83 -162 c-3 -10 -5 -4 -5 12 0 17 2 24 5 18 2
-7 2 -21 0 -30z m140 -1452 c26 -19 53 -34 60 -34 7 0 11 -5 10 -11 -1 -6 4
-10 11 -8 8 1 11 -2 7 -7 -3 -6 6 -27 19 -48 14 -21 28 -53 32 -71 4 -17 10
-30 14 -27 4 2 5 -7 2 -22 -3 -14 -1 -23 4 -20 5 3 8 -12 6 -35 -3 -22 0 -38
4 -35 5 3 9 -58 9 -134 1 -76 -3 -139 -8 -139 -5 0 -7 -47 -5 -105 1 -58 -1
-105 -6 -105 -4 0 -6 -16 -4 -35 2 -19 0 -35 -5 -35 -5 0 -7 -6 -4 -14 3 -8 3
-16 -1 -18 -13 -6 -66 -93 -63 -103 1 -5 0 -7 -3 -4 -3 3 -29 -17 -58 -45 -62
-60 -149 -105 -218 -113 -27 -3 -47 -9 -44 -14 2 -4 -289 -7 -648 -7 -359 1
-585 5 -503 8 139 5 142 6 48 8 l-102 2 -13 58 c-21 91 -18 479 5 561 52 189
150 288 438 440 252 133 336 150 701 148 l266 -2 49 -34z m880 -644 c-1 -67
-3 -9 -3 128 0 138 2 192 3 122 2 -71 2 -183 0 -250z"/>
<path d="M8835 8140 c-4 -6 -11 -8 -16 -4 -19 11 -60 -7 -95 -41 -19 -19 -34
-38 -34 -42 -4 -1245 -4 -3063 0 -3063 4 0 4 -16 2 -36 -3 -22 -1 -34 5 -31 5
3 8 -7 5 -24 -2 -16 0 -29 4 -29 5 0 9 -17 10 -37 0 -20 6 -39 12 -41 6 -2 8
-10 5 -18 -3 -8 0 -14 6 -14 6 0 8 -7 5 -15 -4 -8 -1 -15 5 -15 6 0 8 -6 5
-14 -3 -7 1 -20 9 -27 7 -8 12 -19 10 -25 -2 -7 2 -18 9 -26 7 -7 14 -20 16
-28 2 -8 8 -17 13 -18 5 -2 7 -7 4 -12 -3 -5 0 -14 7 -22 7 -7 14 -20 16 -28
10 -45 139 -223 154 -214 6 4 8 3 5 -3 -9 -15 42 -72 137 -152 52 -44 90 -70
97 -65 7 4 9 3 6 -3 -9 -14 129 -96 145 -87 7 5 8 3 3 -6 -6 -10 -4 -12 9 -7
9 4 15 3 12 -2 -8 -12 72 -43 86 -35 6 4 8 2 4 -4 -8 -13 29 -26 45 -16 8 5 9
3 4 -6 -6 -10 -3 -12 13 -8 14 4 20 2 15 -5 -4 -6 2 -8 15 -5 14 4 20 2 16 -4
-5 -7 2 -9 19 -6 15 3 24 2 22 -3 -11 -17 156 -41 410 -60 210 -15 598 -7 720
15 280 52 521 181 712 380 160 167 261 357 314 591 l23 100 3 1393 c4 1392 4
1393 -17 1440 -15 34 -23 77 -27 159 -3 62 -10 110 -14 107 -5 -3 -6 1 -4 9 8
19 -38 82 -58 81 -9 -1 -14 3 -10 9 4 6 0 8 -10 4 -10 -4 -17 -2 -17 4 0 7
-11 9 -25 7 -14 -3 -25 -1 -25 3 0 5 -90 9 -200 9 -123 0 -200 -4 -200 -10 0
-5 -13 -7 -30 -3 -20 3 -30 1 -30 -6 0 -7 -4 -9 -10 -6 -5 3 -10 1 -10 -5 0
-6 -4 -9 -9 -6 -12 8 -54 -41 -46 -53 3 -6 1 -11 -6 -11 -6 0 -9 -8 -6 -20 3
-11 1 -20 -4 -20 -6 0 -8 -561 -7 -1420 2 -787 -1 -1420 -6 -1420 -4 0 -6 -16
-4 -35 2 -19 0 -35 -5 -35 -5 0 -7 -11 -5 -25 3 -13 1 -26 -3 -27 -5 -2 -10
-14 -11 -28 -2 -14 -6 -27 -9 -30 -13 -11 -48 -88 -42 -94 4 -3 0 -6 -7 -6 -7
0 -11 -2 -8 -5 5 -5 -39 -60 -92 -114 -13 -14 -24 -29 -22 -33 1 -5 -2 -8 -7
-8 -8 0 -131 -78 -158 -100 -7 -6 -15 -10 -18 -9 -11 2 -95 -26 -95 -32 0 -3
-12 -4 -26 -1 -17 3 -25 1 -21 -5 4 -7 -9 -9 -38 -5 -25 2 -45 1 -45 -4 0 -5
-112 -9 -250 -9 -137 0 -241 3 -232 7 9 4 -8 7 -40 5 -31 -1 -54 1 -52 4 4 6
-69 23 -93 22 -7 0 -11 2 -8 6 2 4 -17 18 -43 30 -26 13 -69 39 -95 59 -27 21
-54 37 -60 37 -7 1 -11 5 -10 11 1 6 -13 29 -32 53 -72 90 -68 16 -74 1551
l-6 1375 -22 42 c-17 31 -23 59 -23 106 0 81 -10 158 -20 152 -5 -3 -6 4 -3
15 3 11 1 20 -5 20 -5 0 -9 8 -8 17 2 25 -63 66 -96 59 -16 -3 -28 -1 -28 4 0
14 -397 13 -405 0z m552 -2312 c-1 -392 -2 -74 -2 707 0 781 1 1102 2 713 2
-388 2 -1027 0 -1420z"/>
</g>
</svg>
